<svg xmlns="http://www.w3.org/2000/svg" data-name="Layer 1" viewBox="0 0 64 64"><path d="M43.8 58.14A4 4 0 0 1 41 57L7 23a4 4 0 0 1 5.66-5.66 4.1 4.1 0 0 0 5.66 0L24 11.72A20 20 0 0 1 52.28 40l-5.66 5.66a4 4 0 0 0 0 5.66 4 4 0 0 1-2.83 6.83zM9.86 20.2 43.8 54.14a8 8 0 0 1 0-11.31l5.66-5.66a16 16 0 0 0-22.63-22.63l-5.66 5.66a8 8 0 0 1-11.31 0zm41 18.39zM24 53.66A8 8 0 0 1 18.34 40a2 2 0 0 1 2.83 2.83 4 4 0 0 0 0 5.66 4.1 4.1 0 0 0 5.66 0 2 2 0 1 1 2.83 2.83A8 8 0 0 1 24 53.66z"/><path d="M52.28 15.71a4 4 0 0 1-2.83-6.83 4 4 0 1 1 2.83 6.83zm-1.41-5.41z"/></svg>