<svg xmlns="http://www.w3.org/2000/svg" id="Layer_1" width="32" height="32" x="0" y="0" version="1.0" xml:space="preserve"><path style="line-height:normal;text-indent:0;text-align:start;text-decoration-line:none;text-decoration-style:solid;text-decoration-color:#000;text-transform:none;block-progression:tb;white-space:normal;isolation:auto;mix-blend-mode:normal;solid-color:#000;solid-opacity:1" id="path5310" fill="#000" fill-opacity="1" fill-rule="nonzero" stroke="none" stroke-dasharray="none" stroke-dashoffset="0" stroke-linecap="round" stroke-linejoin="round" stroke-miterlimit="4" stroke-opacity="1" stroke-width="1" d="M16 5.24c-1.295 0-2.59.336-3.75 1.006a.5.5 0 1 0 .5.865 6.498 6.498 0 0 1 6.5 0 .5.5 0 1 0 .5-.865A7.497 7.497 0 0 0 16 5.24zm0 2c-.95 0-1.9.246-2.75.737a.5.5 0 1 0 .5.867 4.498 4.498 0 0 1 4.5 0 .5.5 0 1 0 .5-.867A5.497 5.497 0 0 0 16 7.24zm0 2c-.604 0-1.209.157-1.75.469a.5.5 0 0 0 .5.867 2.498 2.498 0 0 1 2.5 0 .5.5 0 0 0 .5-.867A3.498 3.498 0 0 0 16 9.24zm-8.525 2.447C3.35 11.688 0 15.07 0 19.224c0 4.153 3.35 7.537 7.475 7.537a.5.5 0 0 0 .002 0c3.035-.005 5.71-1.889 6.857-4.692h3.332c1.146 2.803 3.822 4.687 6.857 4.692a.5.5 0 0 0 .002 0c4.125 0 7.475-3.384 7.475-7.537 0-4.154-3.35-7.535-7.475-7.535a.5.5 0 0 0-.007 0c-.093 0-.184.007-.276.011a.5.5 0 0 0-.105-.011H7.863a.5.5 0 0 0-.117.013c-.085-.005-.17-.011-.256-.014a.5.5 0 0 0-.015 0zm-.002 1h.002c.115.004.23.01.345.02a.5.5 0 0 0 .19-.02h16.002a.5.5 0 0 0 .16.016c.118-.008.237-.014.355-.015 3.579 0 6.473 2.918 6.473 6.535s-2.895 6.537-6.475 6.537c-2.74-.004-5.18-1.747-6.095-4.358a.5.5 0 0 0-.471-.334h-3.918a.5.5 0 0 0-.47.334c-.916 2.611-3.356 4.354-6.096 4.358C3.895 25.76 1 22.84 1 19.223s2.894-6.534 6.473-6.535zm17.09 1.655c-.96 0-1.747.793-1.747 1.754a1.76 1.76 0 0 0 1.747 1.756 1.756 1.756 0 0 0 0-3.51zm0 1c.415 0 .744.329.744.754a.744.744 0 1 1-1.49 0c0-.425.33-.754.745-.754zM7.08 15.59a.5.5 0 0 0-.492.506v2.627h-2.6a.5.5 0 1 0 0 1h2.6v2.627a.5.5 0 1 0 1 0v-2.627h2.6a.5.5 0 1 0 0-1h-2.6v-2.627a.5.5 0 0 0-.508-.506zM14 17.203a.5.5 0 1 0 0 1h1a.5.5 0 1 0 0-1h-1zm3 0a.5.5 0 1 0 0 1h1a.5.5 0 1 0 0-1h-1zm4.463.266c-.96 0-1.746.793-1.746 1.754a1.76 1.76 0 0 0 1.746 1.756 1.756 1.756 0 0 0 0-3.51zm6.2 0a1.76 1.76 0 0 0-1.747 1.756c0 .96.786 1.754 1.746 1.754s1.746-.793 1.746-1.754a1.76 1.76 0 0 0-1.746-1.756zm-6.2 1c.415 0 .744.329.744.754a.744.744 0 1 1-1.49 0c0-.425.33-.754.746-.754zm6.2 0c.415 0 .745.33.745.756 0 .424-.33.754-.746.754a.743.743 0 0 1-.746-.754c0-.425.33-.756.746-.756zm-3.1 2.127c-.96 0-1.747.792-1.747 1.754a1.76 1.76 0 0 0 1.747 1.755c.96 0 1.744-.794 1.744-1.755 0-.962-.784-1.754-1.744-1.754zm0 1c.415 0 .744.329.744.754a.744.744 0 1 1-1.49 0c0-.425.33-.754.745-.754z" baseline-shift="baseline" clip-rule="nonzero" color="#000" color-interpolation="sRGB" color-interpolation-filters="linearRGB" color-rendering="auto" direction="ltr" display="inline" enable-background="accumulate" font-family="sans-serif" font-size="medium" font-stretch="normal" font-style="normal" font-variant="normal" font-weight="400" image-rendering="auto" letter-spacing="normal" opacity="1" overflow="visible" shape-rendering="auto" text-anchor="start" text-decoration="none" text-rendering="auto" visibility="visible" word-spacing="normal" writing-mode="lr-tb"/></svg>