<svg xmlns="http://www.w3.org/2000/svg" xmlns:xlink="http://www.w3.org/1999/xlink" version="1.1" width="256" height="256" viewBox="0 0 256 256" xml:space="preserve">

<defs>
</defs>
<g style="stroke: none; stroke-width: 0; stroke-dasharray: none; stroke-linecap: butt; stroke-linejoin: miter; stroke-miterlimit: 10; fill: none; fill-rule: nonzero; opacity: 1;" transform="translate(1.4065934065934016 1.4065934065934016) scale(2.81 2.81)" >
	<path d="M 45.004 88.006 c -0.897 0 -1.685 -0.598 -1.926 -1.461 c -1.206 -4.31 -14.4 -15.488 -23.131 -22.885 c -4.838 -4.099 -8.659 -7.336 -10.419 -9.256 C -3.186 41.692 -3.186 20.908 9.588 8.134 c 4.937 -4.937 12.613 -7.085 20.536 -5.751 c 6.24 1.053 11.581 4.188 14.88 8.614 c 3.3 -4.426 8.641 -7.561 14.881 -8.614 c 7.919 -1.335 15.598 0.813 20.535 5.751 c 12.773 12.773 12.774 33.558 0.001 46.332 c -1.701 1.858 -5.521 5.095 -10.358 9.193 c -8.731 7.397 -21.927 18.576 -23.132 22.886 C 46.689 87.408 45.901 88.006 45.004 88.006 z M 25.621 6.006 c -5.178 0 -10.02 1.772 -13.205 4.957 c -11.213 11.214 -11.213 29.46 0 40.674 c 1.65 1.797 5.574 5.121 10.116 8.97 c 10.283 8.712 18.718 16.052 22.471 21.254 c 3.753 -5.202 12.189 -12.542 22.472 -21.255 c 4.542 -3.849 8.465 -7.172 10.055 -8.907 c 11.273 -11.276 11.273 -29.523 0.061 -40.737 C 73.628 7 67.101 5.223 60.549 6.329 c -6.277 1.059 -11.415 4.562 -13.745 9.369 c -0.334 0.69 -1.033 1.128 -1.8 1.128 s -1.466 -0.438 -1.8 -1.128 c -2.33 -4.808 -7.468 -8.31 -13.745 -9.369 C 28.172 6.112 26.887 6.006 25.621 6.006 z" style="stroke: none; stroke-width: 1; stroke-dasharray: none; stroke-linecap: butt; stroke-linejoin: miter; stroke-miterlimit: 10; fill: rgb(0,0,0); fill-rule: nonzero; opacity: 1;" transform=" matrix(1 0 0 1 0 0) " stroke-linecap="round" />
</g>
</svg>